<?xml version="1.0" encoding="UTF-8" standalone="no"?>
<svg width="40px" height="40px" viewBox="0 0 40 40" version="1.1" xmlns="http://www.w3.org/2000/svg" xmlns:xlink="http://www.w3.org/1999/xlink" xmlns:sketch="http://www.bohemiancoding.com/sketch/ns">
    <title>Untitled</title>
    <description>Created with Sketch (http://www.bohemiancoding.com/sketch)</description>
    <defs></defs>
    <g id="Page-1" stroke="none" stroke-width="1" fill="none" fill-rule="evenodd" sketch:type="MSPage">
        <g id="Shape" sketch:type="MSLayerGroup">
            <path d="M20.0002,0 C8.9542,0 0.0002,8.954 0.0002,20 C0.0002,31.046 8.9542,40 20.0002,40 C31.0462,40 40.0002,31.046 40.0002,20 C40.0002,8.954 31.0462,0 20.0002,0 L20.0002,0 Z" fill="#EA4C89" sketch:type="MSShapeGroup"></path>
            <path d="M20.0002,-0.0004 C8.9542,-0.0004 0.0002,8.9536 0.0002,19.9996 C0.0002,31.0456 8.9542,39.9996 20.0002,39.9996 C31.0462,39.9996 40.0002,31.0456 40.0002,19.9996 C40.0002,8.9536 31.0462,-0.0004 20.0002,-0.0004 L20.0002,-0.0004 Z M20.0002,2.8976 C24.3572,2.8976 28.3342,4.5276 31.3542,7.2096 C29.1352,10.1366 25.7642,12.0856 22.3862,13.4046 C20.5452,10.0366 18.2782,6.4856 15.9712,3.3746 C17.2622,3.0626 18.6112,2.8976 20.0002,2.8976 L20.0002,2.8976 Z M12.7242,4.5186 C14.9532,7.8536 17.1132,10.9466 19.0872,14.4476 C14.0962,15.7406 8.4582,16.5166 3.2492,16.5296 C4.3472,11.2016 7.9262,6.7776 12.7242,4.5186 L12.7242,4.5186 Z M33.2512,9.1876 C35.6372,12.1066 37.0742,15.8296 37.1022,19.8866 C33.1462,19.1076 29.2112,18.9026 25.2062,19.3066 C24.7552,18.1836 24.2102,17.1176 23.6872,15.9666 C27.1402,14.5736 30.8322,12.1896 33.2512,9.1876 L33.2512,9.1876 L33.2512,9.1876 Z M20.4762,17.0936 C20.9042,18.0046 21.4002,18.9696 21.8652,19.9566 C16.2952,22.4126 10.3712,25.6946 7.2952,31.4486 C4.5622,28.4176 2.8982,24.4016 2.8982,19.9996 C2.8982,19.8326 2.9012,19.6656 2.9062,19.4996 C8.8712,19.4706 14.7262,18.7246 20.4762,17.0936 L20.4762,17.0936 Z M37.0442,21.4236 C37.0392,21.4896 37.0332,21.5566 37.0262,21.6226 C37.0332,21.5566 37.0392,21.4906 37.0442,21.4236 L37.0442,21.4236 Z M29.5132,21.7566 C31.9992,21.7486 34.5682,22.0956 36.8892,22.7066 C36.1302,27.4826 33.3922,31.6016 29.5422,34.1936 C28.6242,30.0186 27.7492,26.0236 26.2022,21.9956 C27.2692,21.8366 28.3832,21.7596 29.5132,21.7566 L29.5132,21.7566 Z M36.9782,22.0666 C36.9662,22.1646 36.9552,22.2606 36.9412,22.3576 C36.9552,22.2596 36.9672,22.1636 36.9782,22.0666 L36.9782,22.0666 Z M23.0372,22.7776 C24.6142,26.8496 25.8512,31.3596 26.6812,35.7486 C24.6282,36.6206 22.3712,37.1026 20.0002,37.1026 C16.0452,37.1026 12.4032,35.7586 9.5062,33.5036 C12.6032,28.4786 17.4002,24.6766 23.0372,22.7776 L23.0372,22.7776 Z" fill="#C32361" sketch:type="MSShapeGroup"></path>
        </g>
    </g>
</svg>