<svg version="1.1" xmlns="http://www.w3.org/2000/svg">
	<symbol id="twitter-icon" viewBox="-1 -1 52 41">
		<title>twitter icon</title> 
		<desc>twitter.com</desc>
		<path fill="#55ACEE" d="M0,36.3461306 C0.803663004,36.4417973 1.62142857,36.4907387 2.45054945,36.4907387 C7.26336996,36.4907387 11.6928571,34.8346712 15.2086081,32.0564595 C10.71337,31.9727973 6.91959707,28.9779505 5.61245421,24.8624369 C6.23956044,24.9834054 6.88315018,25.0482297 7.54505495,25.0482297 C8.48205128,25.0482297 9.38956044,24.9217207 10.2516484,24.684955 C5.55201465,23.7334595 2.01117216,19.5466577 2.01117216,14.5276667 C2.01117216,14.4840811 2.01117216,14.4406802 2.01190476,14.397464 C3.3970696,15.1733243 4.98095238,15.6392838 6.66501832,15.693027 C3.90860806,13.8354685 2.09487179,10.6648018 2.09487179,7.07102252 C2.09487179,5.17264865 2.6014652,3.39321171 3.48571429,1.86328378 C8.55238095,8.13037387 16.1217949,12.2543829 24.6595238,12.6863604 C24.4844322,11.9282297 24.3934066,11.1375946 24.3934066,10.3257207 C24.3934066,4.60511261 28.9930403,-0.0328738739 34.6664835,-0.0328738739 C37.6210623,-0.0328738739 40.2908425,1.2251982 42.1648352,3.23844595 C44.5047619,2.77377928 46.7032967,1.91167117 48.6880952,0.724702703 C47.9210623,3.14351802 46.2923077,5.17357207 44.1712454,6.45565315 C46.2492674,6.20522072 48.2291209,5.6483964 50.0714286,4.82451802 C48.6941392,6.90185135 46.952381,8.72635135 44.9454212,10.1868378 C44.9652015,10.6310045 44.9750916,11.0777568 44.9750916,11.5269099 C44.9750916,25.2155541 34.6424908,41 15.7472527,41 C9.9459707,41 4.54615385,39.2852027 0,36.3461306 L0,36.3461306 Z"/>
	</symbol>
	<symbol id="dribbble-icon" viewBox="-1 -1 52 52">
		<title>dribbble icon</title> 
		<desc>dribbble.com</desc>
        <path fill="#EA4C89" d="M25.00025,0 C11.19275,0 0.00025,11.1925 0.00025,25 C0.00025,38.8075 11.19275,50 25.00025,50 C38.80775,50 50.00025,38.8075 50.00025,25 C50.00025,11.1925 38.80775,0 25.00025,0 L25.00025,0 L25.00025,0 Z"/>
        <path fill="#C32361" d="M25.00025,-0.0005 C11.19275,-0.0005 0.00025,11.192 0.00025,24.9995 C0.00025,38.807 11.19275,49.9995 25.00025,49.9995 C38.80775,49.9995 50.00025,38.807 50.00025,24.9995 C50.00025,11.192 38.80775,-0.0005 25.00025,-0.0005 L25.00025,-0.0005 L25.00025,-0.0005 Z M25.00025,3.622 C30.4465,3.622 35.41775,5.6595 39.19275,9.012 C36.419,12.67075 32.20525,15.107 27.98275,16.75575 C25.6815,12.54575 22.84775,8.107 19.964,4.21825 C21.57775,3.82825 23.264,3.622 25.00025,3.622 L25.00025,3.622 L25.00025,3.622 Z M15.90525,5.64825 C18.6915,9.817 21.3915,13.68325 23.859,18.0595 C17.62025,19.67575 10.57275,20.64575 4.0615,20.662 C5.434,14.002 9.90775,8.472 15.90525,5.64825 L15.90525,5.64825 L15.90525,5.64825 Z M41.564,11.4845 C44.5465,15.13325 46.34275,19.787 46.37775,24.85825 C41.43275,23.8845 36.514,23.62825 31.50775,24.13325 C30.944,22.7295 30.26275,21.397 29.609,19.95825 C33.92525,18.217 38.54025,15.237 41.564,11.4845 L41.564,11.4845 L41.564,11.4845 Z M25.59525,21.367 C26.13025,22.50575 26.75025,23.712 27.3315,24.94575 C20.369,28.01575 12.964,32.11825 9.119,39.31075 C5.70275,35.522 3.62275,30.502 3.62275,24.9995 C3.62275,24.79075 3.6265,24.582 3.63275,24.3745 C11.089,24.33825 18.40775,23.40575 25.59525,21.367 L25.59525,21.367 L25.59525,21.367 Z M36.8915,27.19575 C39.999,27.18575 43.21025,27.6195 46.1115,28.38325 C45.16275,34.35325 41.74025,39.502 36.92775,42.742 C35.78025,37.52325 34.6865,32.5295 32.75275,27.4945 C34.0865,27.29575 35.479,27.1995 36.8915,27.19575 L36.8915,27.19575 L36.8915,27.19575 Z M28.7965,28.472 C30.76775,33.562 32.314,39.1995 33.3515,44.68575 C30.78525,45.77575 27.964,46.37825 25.00025,46.37825 C20.0565,46.37825 15.504,44.69825 11.88275,41.8795 C15.754,35.59825 21.75025,30.84575 28.7965,28.472 L28.7965,28.472 L28.7965,28.472 Z"/>
	</symbol>
	<symbol id="github-icon" viewBox="-1 -1 52 52">
		<title>GitHub icon</title> 
		<desc>github.com</desc>
		<path fill="#161616" d="M25.1636364,0.69671875 C11.5363636,0.69671875 0.484848485,11.864125 0.484848485,25.6407813 C0.484848485,36.6611875 7.55606061,46.0094688 17.3636364,49.3077813 C18.5984848,49.5374688 19.0484848,48.76725 19.0484848,48.10575 C19.0484848,47.5146875 19.0272727,45.9451563 19.0151515,43.8641875 C12.15,45.3709375 10.7015152,40.5199375 10.7015152,40.5199375 C9.57878788,37.638125 7.96060606,36.8709688 7.96060606,36.8709688 C5.71969697,35.3244062 8.13030303,35.3550312 8.13030303,35.3550312 C10.6075758,35.531125 11.9106061,37.926 11.9106061,37.926 C14.1121212,41.7372813 17.6878788,40.6363125 19.0939394,39.9977813 C19.3181818,38.3869062 19.9560606,37.2874688 20.6606061,36.66425 C15.180303,36.0349063 9.41818182,33.8942188 9.41818182,24.3361563 C9.41818182,21.6135938 10.380303,19.385625 11.9590909,17.6430625 C11.7045455,17.0121875 10.8575758,14.4749062 12.2015152,11.0418437 C12.2015152,11.0418437 14.2727273,10.3711562 18.9878788,13.5990313 C20.9560606,13.0447187 23.0681818,12.7690937 25.1666667,12.758375 C27.2636364,12.7690937 29.3742424,13.0447187 31.3454545,13.5990313 C36.0575758,10.3711562 38.1257576,11.0418437 38.1257576,11.0418437 C39.4727273,14.4749062 38.6257576,17.0121875 38.3727273,17.6430625 C39.9545455,19.385625 40.9090909,21.6135938 40.9090909,24.3361563 C40.9090909,33.9187187 35.1378788,36.02725 29.6409091,36.6443438 C30.5257576,37.4145625 31.3151515,38.936625 31.3151515,41.264125 C31.3151515,44.5976562 31.2848485,47.2880625 31.2848485,48.10575 C31.2848485,48.773375 31.730303,49.5497188 32.9818182,49.30625 C42.7818182,46.0002813 49.8469697,36.658125 49.8469697,25.6407813 C49.8469697,11.864125 38.7954545,0.69671875 25.1636364,0.69671875"/>
	</symbol>
</svg>