<?xml version="1.0" encoding="UTF-8" standalone="no"?>
<svg width="50px" height="50px" viewBox="0 0 50 50" version="1.1" xmlns="http://www.w3.org/2000/svg" xmlns:xlink="http://www.w3.org/1999/xlink" xmlns:sketch="http://www.bohemiancoding.com/sketch/ns">
    <!-- Generator: Sketch 3.1 (8751) - http://www.bohemiancoding.com/sketch -->
    <title>dribbble-icon</title>
    <desc>Created with Sketch.</desc>
    <defs></defs>
    <g id="Page-1" stroke="none" stroke-width="1" fill="none" fill-rule="evenodd" sketch:type="MSPage">
        <g id="dribbble-icon" sketch:type="MSLayerGroup">
            <path d="M25.0002551,0 C11.1927551,0 0.000255102041,11.1925 0.000255102041,25 C0.000255102041,38.8075 11.1927551,50 25.0002551,50 C38.8077551,50 50.0002551,38.8075 50.0002551,25 C50.0002551,11.1925 38.8077551,0 25.0002551,0 L25.0002551,0 L25.0002551,0 Z" id="shape2" fill="#EA4C89" sketch:type="MSShapeGroup"></path>
            <path d="M25.0002551,-0.000510204082 C11.1927551,-0.000510204082 0.000255102041,11.1919898 0.000255102041,24.9994898 C0.000255102041,38.8069898 11.1927551,49.9994898 25.0002551,49.9994898 C38.8077551,49.9994898 50.0002551,38.8069898 50.0002551,24.9994898 C50.0002551,11.1919898 38.8077551,-0.000510204082 25.0002551,-0.000510204082 L25.0002551,-0.000510204082 L25.0002551,-0.000510204082 Z M25.0002551,3.6219898 C30.4465051,3.6219898 35.4177551,5.6594898 39.1927551,9.0119898 C36.4190051,12.6707398 32.2052551,15.1069898 27.9827551,16.7557398 C25.6815051,12.5457398 22.8477551,8.1069898 19.9640051,4.2182398 C21.5777551,3.8282398 23.2640051,3.6219898 25.0002551,3.6219898 L25.0002551,3.6219898 L25.0002551,3.6219898 Z M15.9052551,5.6482398 C18.6915051,9.8169898 21.3915051,13.6832398 23.8590051,18.0594898 C17.6202551,19.6757398 10.5727551,20.6457398 4.0615051,20.6619898 C5.4340051,14.0019898 9.9077551,8.4719898 15.9052551,5.6482398 L15.9052551,5.6482398 L15.9052551,5.6482398 Z M41.5640051,11.4844898 C44.5465051,15.1332398 46.3427551,19.7869898 46.3777551,24.8582398 C41.4327551,23.8844898 36.5140051,23.6282398 31.5077551,24.1332398 C30.9440051,22.7294898 30.2627551,21.3969898 29.6090051,19.9582398 C33.9252551,18.2169898 38.5402551,15.2369898 41.5640051,11.4844898 L41.5640051,11.4844898 L41.5640051,11.4844898 Z M25.5952551,21.3669898 C26.1302551,22.5057398 26.7502551,23.7119898 27.3315051,24.9457398 C20.3690051,28.0157398 12.9640051,32.1182398 9.1190051,39.3107398 C5.7027551,35.5219898 3.6227551,30.5019898 3.6227551,24.9994898 C3.6227551,24.7907398 3.6265051,24.5819898 3.6327551,24.3744898 C11.0890051,24.3382398 18.4077551,23.4057398 25.5952551,21.3669898 L25.5952551,21.3669898 L25.5952551,21.3669898 Z M36.8915051,27.1957398 C39.9990051,27.1857398 43.2102551,27.6194898 46.1115051,28.3832398 C45.1627551,34.3532398 41.7402551,39.5019898 36.9277551,42.7419898 C35.7802551,37.5232398 34.6865051,32.5294898 32.7527551,27.4944898 C34.0865051,27.2957398 35.4790051,27.1994898 36.8915051,27.1957398 L36.8915051,27.1957398 L36.8915051,27.1957398 Z M28.7965051,28.4719898 C30.7677551,33.5619898 32.3140051,39.1994898 33.3515051,44.6857398 C30.7852551,45.7757398 27.9640051,46.3782398 25.0002551,46.3782398 C20.0565051,46.3782398 15.5040051,44.6982398 11.8827551,41.8794898 C15.7540051,35.5982398 21.7502551,30.8457398 28.7965051,28.4719898 L28.7965051,28.4719898 L28.7965051,28.4719898 Z" id="shape1" fill="#C32361" sketch:type="MSShapeGroup"></path>
        </g>
    </g>
</svg>