<?xml version="1.0" encoding="UTF-8" standalone="no"?>
<svg width="50px" height="50px" viewBox="0 0 50 50" version="1.1" xmlns="http://www.w3.org/2000/svg" xmlns:xlink="http://www.w3.org/1999/xlink" xmlns:sketch="http://www.bohemiancoding.com/sketch/ns">
    <!-- Generator: Sketch 3.1 (8751) - http://www.bohemiancoding.com/sketch -->
    <title>github-icon</title>
    <desc>Created with Sketch.</desc>
    <defs></defs>
    <g id="Page-1" stroke="none" stroke-width="1" fill="none" fill-rule="evenodd" sketch:type="MSPage">
        <g id="github-icon" sketch:type="MSLayerGroup" fill="#161614">
            <path d="M0,25.633467 C0,36.9584555 7.1625894,46.5651047 17.0969029,49.954576 C18.3477086,50.1906116 18.8035237,49.3991056 18.8035237,48.719323 C18.8035237,48.1119247 18.7820375,46.4990147 18.7697597,44.3605321 C11.8158937,45.9089257 10.3486909,40.9238537 10.3486909,40.9238537 C9.21145523,37.9623936 7.57236256,37.1740347 7.57236256,37.1740347 C5.30249547,35.5847282 7.74425243,35.6161996 7.74425243,35.6161996 C10.2535376,35.7971603 11.5734062,38.2582249 11.5734062,38.2582249 C13.8033703,42.1748424 17.4253353,41.0434451 18.8495657,40.3872661 C19.0767059,38.7318697 19.7228276,37.6020459 20.4364775,36.9616026 C14.8853556,36.314865 9.04877375,34.1150132 9.04877375,24.2927848 C9.04877375,21.494976 10.0233279,19.2054306 11.6225176,17.4147071 C11.3646828,16.766396 10.5067682,14.1589893 11.8680745,10.6310438 C11.8680745,10.6310438 13.9660518,9.9418198 18.7421345,13.2589069 C20.73575,12.6892743 22.875165,12.4060315 25.0007674,12.3950166 C27.124835,12.4060315 29.2627152,12.6892743 31.2594002,13.2589069 C36.0324135,9.9418198 38.1273213,10.6310438 38.1273213,10.6310438 C39.4916971,14.1589893 38.6337825,16.766396 38.3774824,17.4147071 C39.9797416,19.2054306 40.9466221,21.494976 40.9466221,24.2927848 C40.9466221,34.1401903 35.1008318,36.3069972 29.5328279,36.9411462 C30.4291108,37.7326523 31.2287056,39.2967816 31.2287056,41.688609 C31.2287056,45.1142725 31.198011,47.8790363 31.198011,48.719323 C31.198011,49.4053999 31.6492219,50.2032002 32.9169097,49.9530025 C42.8435495,46.5556633 50,36.9553083 50,25.633467 C50,11.4760513 38.8056724,0 24.9976979,0 C11.1943276,0 0,11.4760513 0,25.633467 Z" id="shape" sketch:type="MSShapeGroup"></path>
        </g>
    </g>
</svg>